<mxfile host="Electron" agent="Mozilla/5.0 (Macintosh; Intel Mac OS X 10_15_7) AppleWebKit/537.36 (KHTML, like Gecko) draw.io/26.2.15 Chrome/134.0.6998.205 Electron/35.2.1 Safari/537.36" version="26.2.15">
  <diagram name="第 1 页" id="VpDAil0gJOlsFEhHGAnU">
    <mxGraphModel dx="1939" dy="883" grid="1" gridSize="10" guides="1" tooltips="1" connect="1" arrows="1" fold="1" page="1" pageScale="1" pageWidth="827" pageHeight="1169" math="0" shadow="0">
      <root>
        <mxCell id="0" />
        <mxCell id="1" parent="0" />
        <mxCell id="tSoJVWrS4VGUTaPUFlI1-1" value="登录" style="rounded=0;whiteSpace=wrap;html=1;" parent="1" vertex="1">
          <mxGeometry x="-30" y="350" width="120" height="60" as="geometry" />
        </mxCell>
        <mxCell id="tSoJVWrS4VGUTaPUFlI1-3" style="edgeStyle=orthogonalEdgeStyle;rounded=0;orthogonalLoop=1;jettySize=auto;html=1;exitX=0.25;exitY=1;exitDx=0;exitDy=0;entryX=0.5;entryY=0;entryDx=0;entryDy=0;" parent="1" source="tSoJVWrS4VGUTaPUFlI1-2" target="tSoJVWrS4VGUTaPUFlI1-1" edge="1">
          <mxGeometry relative="1" as="geometry" />
        </mxCell>
        <mxCell id="3tlq5CEHcXlEXbHwCdYD-2" style="edgeStyle=orthogonalEdgeStyle;rounded=0;orthogonalLoop=1;jettySize=auto;html=1;exitX=0.25;exitY=1;exitDx=0;exitDy=0;entryX=0.5;entryY=0;entryDx=0;entryDy=0;" edge="1" parent="1" source="tSoJVWrS4VGUTaPUFlI1-2" target="3tlq5CEHcXlEXbHwCdYD-1">
          <mxGeometry relative="1" as="geometry" />
        </mxCell>
        <mxCell id="3tlq5CEHcXlEXbHwCdYD-4" style="edgeStyle=orthogonalEdgeStyle;rounded=0;orthogonalLoop=1;jettySize=auto;html=1;exitX=0.25;exitY=1;exitDx=0;exitDy=0;entryX=0.5;entryY=0;entryDx=0;entryDy=0;" edge="1" parent="1" source="tSoJVWrS4VGUTaPUFlI1-2" target="3tlq5CEHcXlEXbHwCdYD-3">
          <mxGeometry relative="1" as="geometry" />
        </mxCell>
        <mxCell id="3tlq5CEHcXlEXbHwCdYD-6" style="edgeStyle=orthogonalEdgeStyle;rounded=0;orthogonalLoop=1;jettySize=auto;html=1;exitX=0.5;exitY=1;exitDx=0;exitDy=0;entryX=0.5;entryY=0;entryDx=0;entryDy=0;" edge="1" parent="1" source="tSoJVWrS4VGUTaPUFlI1-2" target="3tlq5CEHcXlEXbHwCdYD-5">
          <mxGeometry relative="1" as="geometry" />
        </mxCell>
        <mxCell id="3tlq5CEHcXlEXbHwCdYD-8" style="edgeStyle=orthogonalEdgeStyle;rounded=0;orthogonalLoop=1;jettySize=auto;html=1;exitX=0.5;exitY=1;exitDx=0;exitDy=0;entryX=0.5;entryY=0;entryDx=0;entryDy=0;" edge="1" parent="1" source="tSoJVWrS4VGUTaPUFlI1-2" target="3tlq5CEHcXlEXbHwCdYD-7">
          <mxGeometry relative="1" as="geometry" />
        </mxCell>
        <mxCell id="3tlq5CEHcXlEXbHwCdYD-16" style="edgeStyle=orthogonalEdgeStyle;rounded=0;orthogonalLoop=1;jettySize=auto;html=1;exitX=0.75;exitY=1;exitDx=0;exitDy=0;entryX=0.5;entryY=0;entryDx=0;entryDy=0;" edge="1" parent="1" source="tSoJVWrS4VGUTaPUFlI1-2" target="3tlq5CEHcXlEXbHwCdYD-15">
          <mxGeometry relative="1" as="geometry" />
        </mxCell>
        <mxCell id="3tlq5CEHcXlEXbHwCdYD-26" style="edgeStyle=orthogonalEdgeStyle;rounded=0;orthogonalLoop=1;jettySize=auto;html=1;exitX=0.75;exitY=1;exitDx=0;exitDy=0;" edge="1" parent="1" source="tSoJVWrS4VGUTaPUFlI1-2" target="3tlq5CEHcXlEXbHwCdYD-25">
          <mxGeometry relative="1" as="geometry" />
        </mxCell>
        <mxCell id="tSoJVWrS4VGUTaPUFlI1-2" value="教师" style="rounded=1;whiteSpace=wrap;html=1;" parent="1" vertex="1">
          <mxGeometry x="330" y="70" width="120" height="60" as="geometry" />
        </mxCell>
        <mxCell id="3tlq5CEHcXlEXbHwCdYD-1" value="上传作业" style="rounded=0;whiteSpace=wrap;html=1;" vertex="1" parent="1">
          <mxGeometry x="160" y="350" width="120" height="60" as="geometry" />
        </mxCell>
        <mxCell id="3tlq5CEHcXlEXbHwCdYD-10" style="edgeStyle=orthogonalEdgeStyle;rounded=0;orthogonalLoop=1;jettySize=auto;html=1;exitX=0.25;exitY=1;exitDx=0;exitDy=0;entryX=0.5;entryY=0;entryDx=0;entryDy=0;" edge="1" parent="1" source="3tlq5CEHcXlEXbHwCdYD-3" target="3tlq5CEHcXlEXbHwCdYD-9">
          <mxGeometry relative="1" as="geometry" />
        </mxCell>
        <mxCell id="3tlq5CEHcXlEXbHwCdYD-12" style="edgeStyle=orthogonalEdgeStyle;rounded=0;orthogonalLoop=1;jettySize=auto;html=1;exitX=0.25;exitY=1;exitDx=0;exitDy=0;entryX=0.5;entryY=0;entryDx=0;entryDy=0;" edge="1" parent="1" source="3tlq5CEHcXlEXbHwCdYD-3" target="3tlq5CEHcXlEXbHwCdYD-11">
          <mxGeometry relative="1" as="geometry" />
        </mxCell>
        <mxCell id="3tlq5CEHcXlEXbHwCdYD-14" style="edgeStyle=orthogonalEdgeStyle;rounded=0;orthogonalLoop=1;jettySize=auto;html=1;exitX=0.5;exitY=1;exitDx=0;exitDy=0;entryX=0.5;entryY=0;entryDx=0;entryDy=0;" edge="1" parent="1" source="3tlq5CEHcXlEXbHwCdYD-3" target="3tlq5CEHcXlEXbHwCdYD-13">
          <mxGeometry relative="1" as="geometry" />
        </mxCell>
        <mxCell id="3tlq5CEHcXlEXbHwCdYD-3" value="AI辅助" style="rounded=0;whiteSpace=wrap;html=1;" vertex="1" parent="1">
          <mxGeometry x="300" y="350" width="120" height="60" as="geometry" />
        </mxCell>
        <mxCell id="3tlq5CEHcXlEXbHwCdYD-5" value="创建班级" style="rounded=0;whiteSpace=wrap;html=1;" vertex="1" parent="1">
          <mxGeometry x="450" y="350" width="120" height="60" as="geometry" />
        </mxCell>
        <mxCell id="3tlq5CEHcXlEXbHwCdYD-18" style="edgeStyle=orthogonalEdgeStyle;rounded=0;orthogonalLoop=1;jettySize=auto;html=1;exitX=0.25;exitY=1;exitDx=0;exitDy=0;entryX=0.5;entryY=0;entryDx=0;entryDy=0;" edge="1" parent="1" source="3tlq5CEHcXlEXbHwCdYD-7" target="3tlq5CEHcXlEXbHwCdYD-17">
          <mxGeometry relative="1" as="geometry" />
        </mxCell>
        <mxCell id="3tlq5CEHcXlEXbHwCdYD-20" style="edgeStyle=orthogonalEdgeStyle;rounded=0;orthogonalLoop=1;jettySize=auto;html=1;exitX=0.5;exitY=1;exitDx=0;exitDy=0;entryX=0.5;entryY=0;entryDx=0;entryDy=0;" edge="1" parent="1" source="3tlq5CEHcXlEXbHwCdYD-7" target="3tlq5CEHcXlEXbHwCdYD-19">
          <mxGeometry relative="1" as="geometry" />
        </mxCell>
        <mxCell id="3tlq5CEHcXlEXbHwCdYD-7" value="教学空间" style="rounded=0;whiteSpace=wrap;html=1;" vertex="1" parent="1">
          <mxGeometry x="610" y="350" width="120" height="60" as="geometry" />
        </mxCell>
        <mxCell id="3tlq5CEHcXlEXbHwCdYD-9" value="制作PPT大纲" style="rounded=0;whiteSpace=wrap;html=1;" vertex="1" parent="1">
          <mxGeometry x="30" y="560" width="120" height="60" as="geometry" />
        </mxCell>
        <mxCell id="3tlq5CEHcXlEXbHwCdYD-11" value="制作教学设计" style="rounded=0;whiteSpace=wrap;html=1;" vertex="1" parent="1">
          <mxGeometry x="180" y="560" width="120" height="60" as="geometry" />
        </mxCell>
        <mxCell id="3tlq5CEHcXlEXbHwCdYD-13" value="制作习题" style="rounded=0;whiteSpace=wrap;html=1;" vertex="1" parent="1">
          <mxGeometry x="330" y="560" width="120" height="60" as="geometry" />
        </mxCell>
        <mxCell id="3tlq5CEHcXlEXbHwCdYD-22" style="edgeStyle=orthogonalEdgeStyle;rounded=0;orthogonalLoop=1;jettySize=auto;html=1;exitX=0.25;exitY=1;exitDx=0;exitDy=0;entryX=0.5;entryY=0;entryDx=0;entryDy=0;" edge="1" parent="1" source="3tlq5CEHcXlEXbHwCdYD-15" target="3tlq5CEHcXlEXbHwCdYD-21">
          <mxGeometry relative="1" as="geometry" />
        </mxCell>
        <mxCell id="3tlq5CEHcXlEXbHwCdYD-24" style="edgeStyle=orthogonalEdgeStyle;rounded=0;orthogonalLoop=1;jettySize=auto;html=1;exitX=0.5;exitY=1;exitDx=0;exitDy=0;entryX=0.5;entryY=0;entryDx=0;entryDy=0;" edge="1" parent="1" source="3tlq5CEHcXlEXbHwCdYD-15" target="3tlq5CEHcXlEXbHwCdYD-23">
          <mxGeometry relative="1" as="geometry" />
        </mxCell>
        <mxCell id="3tlq5CEHcXlEXbHwCdYD-28" style="edgeStyle=orthogonalEdgeStyle;rounded=0;orthogonalLoop=1;jettySize=auto;html=1;exitX=0.75;exitY=1;exitDx=0;exitDy=0;entryX=0.5;entryY=0;entryDx=0;entryDy=0;" edge="1" parent="1" source="3tlq5CEHcXlEXbHwCdYD-15" target="3tlq5CEHcXlEXbHwCdYD-27">
          <mxGeometry relative="1" as="geometry" />
        </mxCell>
        <mxCell id="3tlq5CEHcXlEXbHwCdYD-15" value="学情分析" style="rounded=0;whiteSpace=wrap;html=1;" vertex="1" parent="1">
          <mxGeometry x="780" y="350" width="120" height="60" as="geometry" />
        </mxCell>
        <mxCell id="3tlq5CEHcXlEXbHwCdYD-17" value="上传资料" style="rounded=0;whiteSpace=wrap;html=1;" vertex="1" parent="1">
          <mxGeometry x="520" y="560" width="120" height="60" as="geometry" />
        </mxCell>
        <mxCell id="3tlq5CEHcXlEXbHwCdYD-19" value="问题交流" style="rounded=0;whiteSpace=wrap;html=1;" vertex="1" parent="1">
          <mxGeometry x="660" y="560" width="120" height="60" as="geometry" />
        </mxCell>
        <mxCell id="3tlq5CEHcXlEXbHwCdYD-21" value="学生题目作答情况" style="rounded=0;whiteSpace=wrap;html=1;" vertex="1" parent="1">
          <mxGeometry x="750" y="670" width="120" height="60" as="geometry" />
        </mxCell>
        <mxCell id="3tlq5CEHcXlEXbHwCdYD-23" value="学生学习情况" style="rounded=0;whiteSpace=wrap;html=1;" vertex="1" parent="1">
          <mxGeometry x="890" y="670" width="120" height="60" as="geometry" />
        </mxCell>
        <mxCell id="3tlq5CEHcXlEXbHwCdYD-25" value="个人中心" style="rounded=0;whiteSpace=wrap;html=1;" vertex="1" parent="1">
          <mxGeometry x="950" y="350" width="120" height="60" as="geometry" />
        </mxCell>
        <mxCell id="3tlq5CEHcXlEXbHwCdYD-27" value="作答相似度分析" style="rounded=0;whiteSpace=wrap;html=1;" vertex="1" parent="1">
          <mxGeometry x="1040" y="670" width="120" height="60" as="geometry" />
        </mxCell>
      </root>
    </mxGraphModel>
  </diagram>
</mxfile>
